<svg version="1.1" xmlns="http://www.w3.org/2000/svg" viewBox="0 0 69.28628070272214 255.57083519931393" width="69.28628070272214" height="255.57083519931393">
  <!-- svg-source:excalidraw -->
  
  <defs>
    <style class="style-fonts">
      @font-face {
        font-family: "Virgil";
        src: url("https://excalidraw.com/Virgil.woff2");
      }
      @font-face {
        font-family: "Cascadia";
        src: url("https://excalidraw.com/Cascadia.woff2");
      }
    </style>
    
  </defs>
  <g stroke-linecap="round"><g stroke-opacity="0.4" fill-opacity="0.4" transform="translate(15.802133188053972 238.87056235848615) rotate(359.6736999290459 15.268901056825598 -108.25275453207712)"><path d="M-1.1 0.3 C3.53 -4.67, 26.02 5.44, 30.37 -30.74 C34.72 -66.92, 26.63 -185.47, 24.98 -216.81 M3.5 -2.01 C7.6 -7.61, 25.1 0.92, 28.62 -34.33 C32.14 -69.57, 26.07 -183.02, 24.64 -213.46" stroke="#000000" stroke-width="1" fill="none"></path></g><g stroke-opacity="0.4" fill-opacity="0.4" transform="translate(15.802133188053972 238.87056235848615) rotate(359.6736999290459 15.268901056825598 -108.25275453207712)"><path d="M36.65 -184.5 C35.6 -192.88, 27.93 -210.22, 22.52 -213.67 M35.17 -183.94 C31.76 -193.75, 28.18 -199.33, 23.75 -214.83" stroke="#000000" stroke-width="1" fill="none"></path></g><g stroke-opacity="0.4" fill-opacity="0.4" transform="translate(15.802133188053972 238.87056235848615) rotate(359.6736999290459 15.268901056825598 -108.25275453207712)"><path d="M16.16 -183.53 C23.17 -192.13, 23.55 -209.85, 22.52 -213.67 M14.67 -182.97 C16.46 -192.72, 18.08 -198.54, 23.75 -214.83" stroke="#000000" stroke-width="1" fill="none"></path></g></g><mask></mask><g stroke-opacity="0" fill-opacity="0" transform="translate(44.47424906501067 10.000013380118162) rotate(0 0 -0.0000066900590809382265)" stroke="none"><path fill="#000000" d="M -2.22,-0.00 Q -2.22,-0.00 -2.16,-0.35 -2.10,-0.70 -1.93,-1.02 -1.76,-1.34 -1.50,-1.59 -1.24,-1.83 -0.92,-1.98 -0.59,-2.13 -0.23,-2.17 0.12,-2.21 0.47,-2.14 0.82,-2.06 1.12,-1.87 1.43,-1.69 1.67,-1.41 1.90,-1.14 2.03,-0.81 2.16,-0.47 2.18,-0.11 2.20,0.24 2.11,0.58 2.01,0.93 1.81,1.22 1.61,1.52 1.32,1.74 1.03,1.96 0.69,2.07 0.35,2.19 -0.00,2.19 -0.35,2.19 -0.70,2.07 -1.04,1.96 -1.32,1.74 -1.61,1.52 -1.81,1.22 -2.01,0.93 -2.11,0.58 -2.20,0.23 -2.18,-0.11 -2.16,-0.47 -2.03,-0.81 -1.90,-1.14 -1.66,-1.41 -1.43,-1.69 -1.12,-1.87 -0.82,-2.06 -0.47,-2.14 -0.11,-2.21 0.23,-2.17 0.59,-2.13 0.92,-1.98 1.24,-1.83 1.50,-1.59 1.76,-1.34 1.93,-1.02 2.10,-0.70 2.16,-0.35 2.22,0.00 2.22,0.00 2.22,-0.00 2.18,0.26 2.15,0.53 2.06,0.78 1.96,1.03 1.81,1.25 1.66,1.47 1.46,1.65 1.26,1.82 1.02,1.95 0.78,2.07 0.52,2.14 0.26,2.20 -0.00,2.20 -0.26,2.20 -0.52,2.14 -0.78,2.07 -1.02,1.95 -1.26,1.82 -1.46,1.64 -1.66,1.47 -1.81,1.25 -1.96,1.03 -2.06,0.78 -2.15,0.53 -2.18,0.26 -2.22,-0.00 -2.22,-0.00 L -2.22,-0.00 Z"></path></g><g stroke-opacity="0" fill-opacity="0" transform="translate(10 245.57083519931393) rotate(0 0 -0.0000066900590809382265)" stroke="none"><path fill="#000000" d="M -2.22,-0.00 Q -2.22,-0.00 -2.16,-0.35 -2.10,-0.70 -1.93,-1.02 -1.76,-1.34 -1.50,-1.59 -1.24,-1.83 -0.92,-1.98 -0.59,-2.13 -0.23,-2.17 0.12,-2.21 0.47,-2.14 0.82,-2.06 1.12,-1.87 1.43,-1.69 1.67,-1.41 1.90,-1.14 2.03,-0.81 2.16,-0.47 2.18,-0.11 2.20,0.24 2.11,0.58 2.01,0.93 1.81,1.22 1.61,1.52 1.32,1.74 1.03,1.96 0.69,2.07 0.35,2.19 -0.00,2.19 -0.35,2.19 -0.70,2.07 -1.04,1.96 -1.32,1.74 -1.61,1.52 -1.81,1.22 -2.01,0.93 -2.11,0.58 -2.20,0.23 -2.18,-0.11 -2.16,-0.47 -2.03,-0.81 -1.90,-1.14 -1.66,-1.41 -1.43,-1.69 -1.12,-1.87 -0.82,-2.06 -0.47,-2.14 -0.11,-2.21 0.23,-2.17 0.59,-2.13 0.92,-1.98 1.24,-1.83 1.50,-1.59 1.76,-1.34 1.93,-1.02 2.10,-0.70 2.16,-0.35 2.22,0.00 2.22,0.00 2.22,-0.00 2.18,0.26 2.15,0.53 2.06,0.78 1.96,1.03 1.81,1.25 1.66,1.47 1.46,1.65 1.26,1.82 1.02,1.95 0.78,2.07 0.52,2.14 0.26,2.20 -0.00,2.20 -0.26,2.20 -0.52,2.14 -0.78,2.07 -1.02,1.95 -1.26,1.82 -1.46,1.64 -1.66,1.47 -1.81,1.25 -1.96,1.03 -2.06,0.78 -2.15,0.53 -2.18,0.26 -2.22,-0.00 -2.22,-0.00 L -2.22,-0.00 Z"></path></g><g stroke-opacity="0" fill-opacity="0" transform="translate(59.28628070272214 64.42923016756038) rotate(0 0 -0.0000066900590809382265)" stroke="none"><path fill="#000000" d="M -2.22,-0.00 Q -2.22,-0.00 -2.16,-0.35 -2.10,-0.70 -1.93,-1.02 -1.76,-1.34 -1.50,-1.59 -1.24,-1.83 -0.92,-1.98 -0.59,-2.13 -0.23,-2.17 0.12,-2.21 0.47,-2.14 0.82,-2.06 1.12,-1.87 1.43,-1.69 1.67,-1.41 1.90,-1.14 2.03,-0.81 2.16,-0.47 2.18,-0.11 2.20,0.24 2.11,0.58 2.01,0.93 1.81,1.22 1.61,1.52 1.32,1.74 1.03,1.96 0.69,2.07 0.35,2.19 -0.00,2.19 -0.35,2.19 -0.70,2.07 -1.04,1.96 -1.32,1.74 -1.61,1.52 -1.81,1.22 -2.01,0.93 -2.11,0.58 -2.20,0.23 -2.18,-0.11 -2.16,-0.47 -2.03,-0.81 -1.90,-1.14 -1.66,-1.41 -1.43,-1.69 -1.12,-1.87 -0.82,-2.06 -0.47,-2.14 -0.11,-2.21 0.23,-2.17 0.59,-2.13 0.92,-1.98 1.24,-1.83 1.50,-1.59 1.76,-1.34 1.93,-1.02 2.10,-0.70 2.16,-0.35 2.22,0.00 2.22,0.00 2.22,-0.00 2.18,0.26 2.15,0.53 2.06,0.78 1.96,1.03 1.81,1.25 1.66,1.47 1.46,1.65 1.26,1.82 1.02,1.95 0.78,2.07 0.52,2.14 0.26,2.20 -0.00,2.20 -0.26,2.20 -0.52,2.14 -0.78,2.07 -1.02,1.95 -1.26,1.82 -1.46,1.64 -1.66,1.47 -1.81,1.25 -1.96,1.03 -2.06,0.78 -2.15,0.53 -2.18,0.26 -2.22,-0.00 -2.22,-0.00 L -2.22,-0.00 Z"></path></g></svg>