<?xml version="1.0" encoding="UTF-8" standalone="no"?>
<!DOCTYPE svg PUBLIC "-//W3C//DTD SVG 1.1//EN" "http://www.w3.org/Graphics/SVG/1.1/DTD/svg11.dtd">
<svg width="100%" height="100%" viewBox="0 0 1250 140" version="1.1" xmlns="http://www.w3.org/2000/svg" xmlns:xlink="http://www.w3.org/1999/xlink" xml:space="preserve" xmlns:serif="http://www.serif.com/" style="fill-rule:evenodd;clip-rule:evenodd;stroke-linejoin:round;stroke-miterlimit:2;">
    <g id="g847">
        <g id="path835" transform="matrix(0.991091,0,0,0.989918,1.2245,0.910687)">
            <path d="M72.478,42.543L126.978,42.543L126.978,97.043L72.478,97.043L72.478,42.543ZM127.078,15.243L72.478,15.243C57.378,15.243 45.178,27.443 45.178,42.543L45.178,97.043C45.178,112.043 57.378,124.343 72.478,124.343L126.978,124.343C142.078,124.343 154.278,112.143 154.278,97.043L154.278,42.543C154.278,27.443 142.078,15.243 127.078,15.243" style="fill:rgb(0,80,158);fill-rule:nonzero;"/>
        </g>
        <g id="path837" transform="matrix(0.982143,0,0,0.982143,2.20018,1.60063)">
            <path d="M99.578,47.243C87.178,47.243 77.178,57.243 77.178,69.643C77.178,82.043 87.178,92.043 99.578,92.043C111.978,92.043 121.978,82.043 121.978,69.643C121.978,57.243 111.978,47.243 99.578,47.243" style="fill:rgb(0,80,158);fill-rule:nonzero;"/>
        </g>
        <path id="polygon839" d="M230.578,15.443L283.678,92.643L283.678,33.243L283.578,19.043L267.578,19.043L267.578,15.443L301.878,15.443L301.878,19.043L288.578,19.043L288.478,33.243L288.478,125.143L285.978,125.943L214.778,22.343L214.778,105.543L214.978,120.043L231.378,120.043L231.378,123.743L195.878,123.743L195.878,120.043L210.078,120.043L210.178,105.543L210.178,33.243L210.078,19.043L195.878,19.043L195.878,15.443L230.578,15.443Z" style="fill-rule:nonzero;"/>
        <path id="path841" d="M407.778,15.443L407.778,50.143L403.178,50.143C402.678,44.743 402.078,38.043 397.378,30.043C391.878,20.643 384.378,20.243 376.978,19.943L368.378,19.943L368.178,33.743L368.178,104.543L368.378,120.243L384.978,120.243L384.978,123.943L334.678,123.943L334.678,120.243L351.278,120.243L351.478,104.543L351.478,33.743L351.278,19.943L344.178,19.943C335.278,20.043 328.478,20.043 322.078,30.343C316.978,38.443 316.578,44.943 316.278,50.143L311.878,50.143L311.878,15.443L407.778,15.443" style="fill-rule:nonzero;"/>
        <path id="polygon843" d="M451.378,15.443L504.478,92.643L504.478,33.243L504.278,19.043L488.378,19.043L488.378,15.443L522.578,15.443L522.578,19.043L509.378,19.043L509.178,33.243L509.178,125.143L506.778,125.943L435.578,22.343L435.578,105.543L435.678,120.043L452.078,120.043L452.078,123.743L416.678,123.743L416.678,120.043L430.778,120.043L430.978,105.543L430.978,33.243L430.778,19.043L416.678,19.043L416.678,15.443L451.378,15.443Z" style="fill-rule:nonzero;"/>
        <path id="path845" d="M582.178,15.443L582.178,19.143L566.978,19.143L566.778,32.143L566.778,90.743C566.978,105.943 567.278,120.343 595.778,120.343C624.678,120.343 626.478,107.743 626.978,94.143L626.978,32.143L626.878,19.143L611.378,19.143L611.378,15.443L645.278,15.443L645.278,19.143L631.878,19.143L631.778,32.143L631.778,88.043C631.578,108.143 631.478,125.343 591.678,125.343C585.978,125.343 572.478,124.743 563.878,121.243C550.178,115.443 549.878,103.443 549.778,88.743L549.778,32.243L549.678,19.243L536.478,19.243L536.478,15.543L582.178,15.543" style="fill-rule:nonzero;"/>
    </g>
    <g transform="matrix(1,0,0,1,750.929,99.647)">
        <g id="text858">
            <g transform="matrix(80,0,0,80,0,0)">
                <path d="M0.64,-0L0.557,-0L0.557,-0.336L0.181,-0.336L0.181,-0L0.098,-0L0.098,-0.714L0.181,-0.714L0.181,-0.41L0.557,-0.41L0.557,-0.714L0.64,-0.714L0.64,-0Z" style="fill-rule:nonzero;"/>
            </g>
            <g transform="matrix(80,0,0,80,59.0234,0)">
                <path d="M0.637,-0.714L0.637,-0.252C0.637,-0.171 0.613,-0.107 0.563,-0.06C0.514,-0.014 0.447,0.01 0.361,0.01C0.275,0.01 0.208,-0.014 0.161,-0.061C0.114,-0.107 0.091,-0.172 0.091,-0.254L0.091,-0.714L0.174,-0.714L0.174,-0.248C0.174,-0.188 0.19,-0.143 0.223,-0.111C0.255,-0.079 0.303,-0.063 0.366,-0.063C0.426,-0.063 0.473,-0.079 0.505,-0.111C0.538,-0.143 0.554,-0.189 0.554,-0.249L0.554,-0.714L0.637,-0.714Z" style="fill-rule:nonzero;"/>
            </g>
            <g transform="matrix(80,0,0,80,117.266,0)">
                <path d="M0.656,-0L0.561,-0L0.171,-0.599L0.167,-0.599C0.172,-0.529 0.175,-0.464 0.175,-0.406L0.175,-0L0.098,-0L0.098,-0.714L0.192,-0.714L0.581,-0.117L0.585,-0.117C0.584,-0.126 0.583,-0.154 0.581,-0.202C0.578,-0.25 0.577,-0.284 0.578,-0.304L0.578,-0.714L0.656,-0.714L0.656,-0Z" style="fill-rule:nonzero;"/>
            </g>
            <g transform="matrix(80,0,0,80,177.578,0)">
                <path d="M0.318,-0L0.235,-0L0.235,-0.64L0.009,-0.64L0.009,-0.714L0.544,-0.714L0.544,-0.64L0.318,-0.64L0.318,-0Z" style="fill-rule:nonzero;"/>
            </g>
            <g transform="matrix(80,0,0,80,242.617,0)">
                <path d="M0.404,-0.65C0.325,-0.65 0.263,-0.624 0.218,-0.572C0.173,-0.519 0.15,-0.448 0.15,-0.357C0.15,-0.264 0.172,-0.191 0.216,-0.14C0.259,-0.089 0.322,-0.064 0.403,-0.064C0.453,-0.064 0.509,-0.073 0.573,-0.091L0.573,-0.018C0.524,0 0.463,0.01 0.39,0.01C0.285,0.01 0.204,-0.022 0.147,-0.086C0.09,-0.15 0.061,-0.24 0.061,-0.358C0.061,-0.431 0.075,-0.496 0.102,-0.551C0.13,-0.607 0.17,-0.649 0.221,-0.679C0.273,-0.709 0.334,-0.724 0.405,-0.724C0.48,-0.724 0.545,-0.71 0.601,-0.683L0.566,-0.612C0.512,-0.637 0.458,-0.65 0.404,-0.65Z" style="fill-rule:nonzero;"/>
            </g>
            <g transform="matrix(80,0,0,80,293.086,0)">
                <rect x="0.086" y="-0.76" width="0.081" height="0.76" style="fill-rule:nonzero;"/>
            </g>
            <g transform="matrix(80,0,0,80,313.32,0)">
                <path d="M0.548,-0.268C0.548,-0.181 0.526,-0.113 0.482,-0.064C0.438,-0.015 0.377,0.01 0.3,0.01C0.252,0.01 0.209,-0.001 0.172,-0.024C0.135,-0.046 0.107,-0.079 0.086,-0.121C0.066,-0.163 0.056,-0.212 0.056,-0.268C0.056,-0.355 0.078,-0.423 0.122,-0.472C0.165,-0.521 0.226,-0.545 0.303,-0.545C0.378,-0.545 0.438,-0.52 0.482,-0.47C0.526,-0.42 0.548,-0.353 0.548,-0.268ZM0.14,-0.268C0.14,-0.2 0.154,-0.148 0.181,-0.112C0.208,-0.076 0.249,-0.058 0.302,-0.058C0.355,-0.058 0.395,-0.076 0.423,-0.112C0.45,-0.147 0.464,-0.199 0.464,-0.268C0.464,-0.336 0.45,-0.388 0.423,-0.423C0.395,-0.458 0.354,-0.476 0.301,-0.476C0.248,-0.476 0.208,-0.459 0.181,-0.424C0.154,-0.389 0.14,-0.337 0.14,-0.268Z" style="fill-rule:nonzero;"/>
            </g>
            <g transform="matrix(80,0,0,80,361.641,0)">
                <path d="M0.162,-0.535L0.162,-0.188C0.162,-0.144 0.172,-0.112 0.192,-0.09C0.212,-0.069 0.243,-0.058 0.285,-0.058C0.341,-0.058 0.382,-0.073 0.408,-0.104C0.434,-0.135 0.447,-0.185 0.447,-0.254L0.447,-0.535L0.528,-0.535L0.528,-0L0.461,-0L0.449,-0.072L0.445,-0.072C0.428,-0.045 0.405,-0.025 0.376,-0.011C0.346,0.003 0.313,0.01 0.275,0.01C0.21,0.01 0.161,-0.006 0.129,-0.037C0.096,-0.068 0.08,-0.117 0.08,-0.185L0.08,-0.535L0.162,-0.535Z" style="fill-rule:nonzero;"/>
            </g>
            <g transform="matrix(80,0,0,80,410.742,0)">
                <path d="M0.45,-0.072L0.446,-0.072C0.408,-0.017 0.352,0.01 0.278,0.01C0.208,0.01 0.153,-0.014 0.115,-0.062C0.076,-0.11 0.056,-0.178 0.056,-0.266C0.056,-0.354 0.076,-0.423 0.115,-0.472C0.154,-0.521 0.208,-0.545 0.278,-0.545C0.35,-0.545 0.406,-0.519 0.445,-0.466L0.451,-0.466L0.448,-0.504L0.446,-0.542L0.446,-0.76L0.527,-0.76L0.527,-0L0.461,-0L0.45,-0.072ZM0.288,-0.058C0.343,-0.058 0.384,-0.073 0.408,-0.103C0.433,-0.133 0.446,-0.182 0.446,-0.249L0.446,-0.266C0.446,-0.342 0.433,-0.396 0.408,-0.428C0.383,-0.461 0.342,-0.477 0.287,-0.477C0.24,-0.477 0.203,-0.459 0.178,-0.422C0.153,-0.385 0.14,-0.333 0.14,-0.265C0.14,-0.197 0.153,-0.145 0.178,-0.11C0.203,-0.076 0.24,-0.058 0.288,-0.058Z" style="fill-rule:nonzero;"/>
            </g>
        </g>
    </g>
    <rect id="rect860" x="698.684" y="14.84" width="2" height="110"/>
</svg>
